<?xml version="1.0" encoding="iso-8859-1"?>
<!-- Generator: Adobe Illustrator 19.0.0, SVG Export Plug-In . SVG Version: 6.00 Build 0)  -->
<svg xmlns="http://www.w3.org/2000/svg" xmlns:xlink="http://www.w3.org/1999/xlink" version="1.1" id="Capa_1" x="0px" y="0px" viewBox="0 0 470 470" style="enable-background:new 0 0 470 470;" xml:space="preserve" width="512" height="512">
<g>
	<path style="fill:#FDA162;" d="M445.23,147.92l-0.05,0.02l-89.159-33.961L322.06,24.82l0.02-0.05C295.26,13.64,265.85,7.5,235,7.5   c-30.85,0-60.26,6.14-87.08,17.27l0.02,0.05l-33.961,89.159L24.82,147.94l-0.05-0.02C13.64,174.74,7.5,204.15,7.5,235   c0,30.85,6.14,60.26,17.27,87.08l0.05-0.02l89.159,33.961l33.961,89.159l-0.02,0.05c26.82,11.13,56.23,17.27,87.08,17.27   c30.85,0,60.26-6.14,87.08-17.27l-0.02-0.05l33.961-89.159l89.159-33.961l0.05,0.02c11.13-26.82,17.27-56.23,17.27-87.08   C462.5,204.15,456.36,174.74,445.23,147.92z"/>
	<path style="fill:#FDCE6E;" d="M147.94,24.82L235,235L24.82,147.94l-0.05-0.02C47.83,92.31,92.31,47.83,147.92,24.77L147.94,24.82z   "/>
	<path style="fill:#FDCE6E;" d="M235,235l-87.06,210.18l-0.02,0.05C92.31,422.17,47.83,377.69,24.77,322.08l0.05-0.02L235,235z"/>
	<path style="fill:#FDCE6E;" d="M445.18,322.06l0.05,0.02c-23.06,55.61-67.54,100.09-123.15,123.15l-0.02-0.05L235,235   L445.18,322.06z"/>
	<path style="fill:#FDCE6E;" d="M445.23,147.92l-0.05,0.02L235,235l87.06-210.18l0.02-0.05C377.69,47.83,422.17,92.31,445.23,147.92   z"/>
	<path style="fill:#FDCE6E;" d="M237.16,37.52l91.34,50.04l-17.92-35.03C287.92,43.11,263.13,37.79,237.16,37.52z"/>
	<path style="fill:#FDCE6E;" d="M417.47,159.42h-34.43v151.16h34.43c9.68-23.29,15.03-48.82,15.03-75.58   S427.15,182.71,417.47,159.42z"/>
	<path style="fill:#FDCE6E;" d="M237.16,432.48l91.34-50.04l-17.92,35.03C287.92,426.89,263.13,432.21,237.16,432.48z"/>
	<path style="fill:#FDFA7B;" d="M402.5,235c0-22.93-3.33-44.97-9.46-65.46l-55.114-37.012L308.5,57.56   c-21.59-12.5-45.78-19.66-71.34-20.04c-0.72-0.01-1.44-0.02-2.16-0.02c-26.76,0-52.29,5.35-75.58,15.03l-32.58,74.31l-74.31,32.58   C42.85,182.71,37.5,208.24,37.5,235s5.35,52.29,15.03,75.58l74.31,32.58l32.58,74.31c23.29,9.68,48.82,15.03,75.58,15.03   c0.72,0,1.44-0.01,2.16-0.02c25.56-0.38,49.75-7.54,71.34-20.04l29.426-74.968l55.114-37.012C399.17,279.97,402.5,257.93,402.5,235   z"/>
	<path style="fill:#FDFA7B;" d="M393.04,300.46L308.5,412.44l2.08,5.03c48.22-20.05,86.84-58.67,106.89-106.89L393.04,300.46z"/>
	<path style="fill:#FDFA7B;" d="M310.58,52.53l-2.08,5.03l84.54,111.98l24.43-10.12C397.42,111.2,358.8,72.58,310.58,52.53z"/>
	<path style="fill:#FEFDCA;" d="M235,235l158.04,65.46c-14.66,49.06-45.31,89.31-84.54,111.98L235,235z"/>
	<path style="fill:#FEFDCA;" d="M393.04,169.54L235,235l73.5-177.44C347.73,80.23,378.38,120.48,393.04,169.54z"/>
	<path style="fill:#FEFDCA;" d="M235,235l-75.58,182.47C111.2,397.42,72.58,358.8,52.53,310.58L235,235z"/>
	<path style="fill:#FEFDCA;" d="M159.42,52.53L235,235L52.53,159.42C72.58,111.2,111.2,72.58,159.42,52.53z"/>
	<circle style="fill:#FD7555;" cx="235" cy="105" r="20"/>
	<circle style="fill:#EF431D;" cx="143.076" cy="143.076" r="20"/>
	<circle style="fill:#FD7555;" cx="105" cy="235" r="20"/>
	<circle style="fill:#EF431D;" cx="143.076" cy="326.924" r="20"/>
	<circle style="fill:#EF431D;" cx="235" cy="365" r="20"/>
	<circle style="fill:#FD7555;" cx="326.924" cy="326.924" r="20"/>
	<circle style="fill:#EF431D;" cx="365" cy="235" r="20"/>
	<circle style="fill:#FD7555;" cx="326.924" cy="143.076" r="20"/>
	<circle style="fill:#668A30;" cx="270.355" cy="69.645" r="7.5"/>
	<circle style="fill:#668A30;" cx="235" cy="155" r="7.5"/>
	<circle style="fill:#84B044;" cx="143.076" cy="93.076" r="7.5"/>
	<circle style="fill:#668A30;" cx="69.645" cy="199.645" r="7.5"/>
	<circle style="fill:#84B044;" cx="143.076" cy="376.924" r="7.5"/>
	<circle style="fill:#84B044;" cx="376.924" cy="326.924" r="7.5"/>
	<circle style="fill:#84B044;" cx="315" cy="235" r="7.5"/>
	<path d="M401.17,68.83C356.785,24.444,297.771,0,235,0S113.215,24.444,68.83,68.83C24.444,113.215,0,172.229,0,235   s24.444,121.785,68.83,166.17C113.215,445.556,172.229,470,235,470s121.785-24.444,166.17-68.83   C445.556,356.785,470,297.771,470,235S445.556,113.215,401.17,68.83z M441.002,312.211l-13.864-5.742   C435.447,284.204,440,260.125,440,235c0-25.125-4.553-49.204-12.861-71.468l13.863-5.742C450.041,181.826,455,207.843,455,235   S450.041,288.174,441.002,312.211z M307.772,410.501c-0.022,0.009-0.044,0.015-0.066,0.024c-0.019,0.008-0.036,0.018-0.054,0.026   C285.257,419.853,260.72,425,235,425c-104.766,0-190-85.234-190-190c0-79.02,48.494-146.918,117.281-175.523   C184.71,50.154,209.263,45,235,45c25.74,0,50.295,5.155,72.703,14.471c46.389,19.288,83.539,56.437,102.824,102.819   C419.845,184.704,425,209.26,425,235C425,314,376.53,381.884,307.772,410.501z M435.251,143.935l-13.87,5.745   c-20.484-44.569-56.492-80.577-101.061-101.061l5.745-13.87C374.292,56.768,413.232,95.708,435.251,143.935z M312.211,28.998   l-5.742,13.863C284.204,34.553,260.125,30,235,30c-25.125,0-49.204,4.553-71.469,12.861l-5.742-13.864   C181.826,19.959,207.843,15,235,15S288.174,19.959,312.211,28.998z M143.935,34.749l5.745,13.87   C105.112,69.104,69.103,105.112,48.62,149.681l-13.87-5.745C56.768,95.708,95.708,56.768,143.935,34.749z M28.998,157.789   l13.863,5.742C34.553,185.796,30,209.875,30,235s4.553,49.204,12.861,71.468l-13.863,5.742C19.959,288.174,15,262.157,15,235   S19.959,181.826,28.998,157.789z M34.749,326.065l13.87-5.745c20.484,44.569,56.492,80.577,101.061,101.061l-5.745,13.87   C95.708,413.232,56.768,374.292,34.749,326.065z M157.789,441.002l5.743-13.863C185.796,435.447,209.875,440,235,440   c25.125,0,49.204-4.553,71.469-12.861l5.742,13.864C288.174,450.041,262.157,455,235,455S181.826,450.041,157.789,441.002z    M326.065,435.251l-5.745-13.87c44.569-20.484,80.577-56.492,101.061-101.061l13.87,5.745   C413.232,374.292,374.292,413.232,326.065,435.251z"/>
	<path d="M248.858,248.858l138.011,57.166c0.938,0.389,1.911,0.573,2.867,0.573c2.943,0,5.736-1.744,6.932-4.632   c1.585-3.827-0.232-8.214-4.059-9.799L254.599,235l138.013-57.167c3.827-1.585,5.644-5.973,4.059-9.799s-5.974-5.643-9.799-4.059   l-138.013,57.167l57.167-138.013c1.585-3.827-0.232-8.214-4.059-9.799c-3.825-1.585-8.214,0.231-9.799,4.059L235,215.401   L177.833,77.389c-1.585-3.827-5.973-5.644-9.799-4.059c-3.827,1.585-5.644,5.973-4.059,9.799l57.167,138.012L83.129,163.975   c-3.825-1.585-8.214,0.231-9.799,4.059c-1.585,3.827,0.232,8.214,4.059,9.799L215.401,235L77.382,292.169   c-3.827,1.585-5.644,5.973-4.059,9.799c1.196,2.888,3.989,4.632,6.932,4.632c0.957,0,1.929-0.184,2.867-0.573l138.019-57.169   l-57.167,138.014c-1.585,3.827,0.232,8.214,4.059,9.799c0.938,0.389,1.911,0.573,2.867,0.573c2.943,0,5.736-1.744,6.932-4.632   L235,254.599l57.169,138.018c1.196,2.888,3.989,4.632,6.932,4.632c0.957,0,1.929-0.184,2.867-0.573   c3.827-1.585,5.644-5.973,4.059-9.799L248.858,248.858z"/>
	<path d="M235,132.5c15.164,0,27.5-12.336,27.5-27.5S250.164,77.5,235,77.5s-27.5,12.336-27.5,27.5S219.836,132.5,235,132.5z    M235,92.5c6.893,0,12.5,5.607,12.5,12.5s-5.607,12.5-12.5,12.5s-12.5-5.607-12.5-12.5S228.107,92.5,235,92.5z"/>
	<path d="M143.076,170.576c7.345,0,14.251-2.86,19.445-8.055c5.194-5.194,8.055-12.1,8.055-19.445s-2.86-14.251-8.055-19.445   c-5.194-5.194-12.1-8.055-19.445-8.055s-14.251,2.86-19.445,8.055c-5.194,5.194-8.055,12.1-8.055,19.445s2.86,14.251,8.055,19.445   C128.825,167.716,135.731,170.576,143.076,170.576z M134.237,134.237c2.361-2.361,5.5-3.661,8.839-3.661s6.478,1.3,8.839,3.661   c4.874,4.874,4.874,12.804,0,17.678c-2.361,2.361-5.5,3.661-8.839,3.661s-6.478-1.3-8.839-3.661   C129.364,147.041,129.364,139.111,134.237,134.237z"/>
	<path d="M132.5,235c0-15.164-12.336-27.5-27.5-27.5S77.5,219.836,77.5,235s12.336,27.5,27.5,27.5S132.5,250.164,132.5,235z    M92.5,235c0-6.893,5.607-12.5,12.5-12.5s12.5,5.607,12.5,12.5s-5.607,12.5-12.5,12.5S92.5,241.893,92.5,235z"/>
	<path d="M162.521,307.479c-5.194-5.194-12.1-8.055-19.445-8.055s-14.251,2.86-19.445,8.055c-5.194,5.194-8.055,12.1-8.055,19.445   s2.86,14.251,8.055,19.445c5.194,5.194,12.1,8.055,19.445,8.055s14.251-2.86,19.445-8.055c5.194-5.194,8.055-12.1,8.055-19.445   S167.716,312.672,162.521,307.479z M151.915,335.763c-2.361,2.361-5.5,3.661-8.839,3.661s-6.478-1.3-8.839-3.661   c-4.874-4.874-4.874-12.804,0-17.678c2.361-2.361,5.5-3.661,8.839-3.661s6.478,1.3,8.839,3.661   C156.789,322.959,156.789,330.889,151.915,335.763z"/>
	<path d="M235,337.5c-15.164,0-27.5,12.336-27.5,27.5s12.336,27.5,27.5,27.5s27.5-12.336,27.5-27.5S250.164,337.5,235,337.5z    M235,377.5c-6.893,0-12.5-5.607-12.5-12.5s5.607-12.5,12.5-12.5s12.5,5.607,12.5,12.5S241.893,377.5,235,377.5z"/>
	<path d="M326.924,299.424c-7.345,0-14.251,2.86-19.445,8.055c-5.194,5.194-8.055,12.1-8.055,19.445s2.86,14.251,8.055,19.445   c5.194,5.194,12.1,8.055,19.445,8.055s14.251-2.86,19.445-8.055c5.194-5.194,8.055-12.1,8.055-19.445s-2.86-14.251-8.055-19.445   C341.175,302.284,334.269,299.424,326.924,299.424z M335.763,335.763c-2.361,2.361-5.5,3.661-8.839,3.661s-6.478-1.3-8.839-3.661   c-4.874-4.874-4.874-12.804,0-17.678c2.361-2.361,5.5-3.661,8.839-3.661s6.478,1.3,8.839,3.661   C340.636,322.959,340.636,330.889,335.763,335.763z"/>
	<path d="M337.5,235c0,15.164,12.336,27.5,27.5,27.5s27.5-12.336,27.5-27.5s-12.336-27.5-27.5-27.5S337.5,219.836,337.5,235z    M377.5,235c0,6.893-5.607,12.5-12.5,12.5s-12.5-5.607-12.5-12.5s5.607-12.5,12.5-12.5S377.5,228.107,377.5,235z"/>
	<path d="M307.479,162.521c5.194,5.194,12.1,8.055,19.445,8.055s14.251-2.86,19.445-8.055c5.194-5.194,8.055-12.1,8.055-19.445   s-2.86-14.251-8.055-19.445c-5.194-5.194-12.1-8.055-19.445-8.055s-14.251,2.86-19.445,8.055c-5.194,5.194-8.055,12.1-8.055,19.445   S302.284,157.328,307.479,162.521z M318.085,134.237c2.361-2.361,5.5-3.661,8.839-3.661s6.478,1.3,8.839,3.661   c4.874,4.874,4.874,12.804,0,17.678c-2.361,2.361-5.5,3.661-8.839,3.661s-6.478-1.3-8.839-3.661   C313.211,147.041,313.211,139.111,318.085,134.237z"/>
	<circle cx="93.076" cy="143.076" r="7.5"/>
	<circle cx="155" cy="235" r="7.5"/>
	<circle cx="93.076" cy="326.924" r="7.5"/>
	<circle cx="199.645" cy="400.355" r="7.5"/>
	<circle cx="235" cy="315" r="7.5"/>
	<circle cx="326.924" cy="376.924" r="7.5"/>
	<circle cx="400.355" cy="270.355" r="7.5"/>
	<circle cx="376.924" cy="143.076" r="7.5"/>
	<circle cx="326.924" cy="93.076" r="7.5"/>
</g>















</svg>
